<?xml version="1.0" encoding="utf-8"?>
<svg xmlns="http://www.w3.org/2000/svg" viewBox="0 0 24 24" width="96" height="96">
  <path d="M11.947266 0.20117188 A 1.0001 1.0001 0 0 0 11.566406 0.29882812L1.5664062 5.0976562 A 1.0011133 1.0011133 0 1 0 2.4335938 6.9023438L12 2.3085938L21.566406 6.9023438 A 1.0011134 1.0011134 0 1 0 22.433594 5.0976562L12.433594 0.29882812 A 1.0001 1.0001 0 0 0 11.947266 0.20117188 z M 17 6.8242188C16.49 6.8242187 15.979844 7.0201562 15.589844 7.4101562L15.210938 7.7890625L18.210938 10.789062L18.589844 10.410156C19.369844 9.6301563 19.369844 8.3698437 18.589844 7.5898438L18.410156 7.4101562C18.020156 7.0201562 17.51 6.8242188 17 6.8242188 z M 7 6.828125C6.48825 6.828125 5.9764375 7.0235625 5.5859375 7.4140625L4.4140625 8.5859375C3.6330625 9.3669375 3.6330625 10.633063 4.4140625 11.414062L8 15L4 19L4 22L7 22L16.789062 12.210938L13.789062 9.2109375L12 11L8.4140625 7.4140625C8.0235625 7.0235625 7.51175 6.828125 7 6.828125 z M 7 8.828125L10.585938 12.414062L9.4140625 13.585938L5.828125 10L7 8.828125 z M 16.419922 15.419922L15 16.830078L17.169922 19L16 20.169922L13.830078 18L12.419922 19.419922L14.589844 21.589844C15.369844 22.369844 16.630156 22.369844 17.410156 21.589844L18.589844 20.410156C19.369844 19.630156 19.369844 18.369844 18.589844 17.589844L16.419922 15.419922 z" fill="#155E75" />
</svg>