<?xml version="1.0" encoding="utf-8"?>
<svg xmlns="http://www.w3.org/2000/svg" viewBox="0 0 24 24" width="96" height="96">
  <path d="M4 3 A 2 2 0 0 0 2 5 A 2 2 0 0 0 4 7 A 2 2 0 0 0 6 5 A 2 2 0 0 0 4 3 z M 12 3 A 2 2 0 0 0 10 5 A 2 2 0 0 0 12 7 A 2 2 0 0 0 14 5 A 2 2 0 0 0 12 3 z M 20 3 A 2 2 0 0 0 18 5 A 2 2 0 0 0 20 7 A 2 2 0 0 0 22 5 A 2 2 0 0 0 20 3 z M 4 8C2.895 8 2 8.895 2 10L2 16C2 17.105 2.895 18 4 18L7 18L7 20C7 20.552 7.448 21 8 21C8.552 21 9 20.552 9 20L9 17C9 16.448 8.552 16 8 16C7.448 16 7 15.552 7 15C7 14.448 7.448 14 8 14L16 14C16.552 14 17 14.448 17 15C17 15.552 16.552 16 16 16C15.448 16 15 16.448 15 17L15 20C15 20.552 15.448 21 16 21C16.552 21 17 20.552 17 20L17 18L20 18C21.105 18 22 17.105 22 16L22 10C22 8.895 21.105 8 20 8L19 8C17.895 8 17 8.895 17 10L17 12L15 12L15 10C15 8.895 14.105 8 13 8L11 8C9.895 8 9 8.895 9 10L9 12L7 12L7 10C7 8.895 6.105 8 5 8L4 8 z" fill="#155E75" />
</svg>