<?xml version="1.0" encoding="utf-8"?>
<svg xmlns="http://www.w3.org/2000/svg" viewBox="0 0 24 24" width="96" height="96">
  <path d="M5 2 A 2 2 0 0 0 5 6 A 2 2 0 0 0 5 2 z M 10 3C9.448 3 9 3.448 9 4C9 4.552 9.448 5 10 5L19 5L19 14L17 14L17 13C17 12.448 16.552 12 16 12L14 12C13.448 12 13 12.448 13 13L13 14L11 14C10.448 14 10 14.448 10 15C10 15.552 10.448 16 11 16L21 16C21.552 16 22 15.552 22 15C22 14.448 21.552 14 21 14L21 4.5C21 3.672 20.328 3 19.5 3L10 3 z M 4 7C2.895 7 2 7.895 2 9L2 16L2 21C2 21.552 2.448 22 3 22C3.552 22 4 21.552 4 21L4 16L6 16L6 21C6 21.552 6.448 22 7 22C7.552 22 8 21.552 8 21L8 16L8 9L13 9C13.552 9 14 8.552 14 8C14 7.448 13.552 7 13 7L4 7 z" fill="#155E75" />
</svg>